<?xml version="1.0" standalone="no"?>
<!DOCTYPE svg PUBLIC "-//W3C//DTD SVG 20010904//EN"
 "http://www.w3.org/TR/2001/REC-SVG-20010904/DTD/svg10.dtd">
<svg version="1.0" xmlns="http://www.w3.org/2000/svg"
 width="200.000000pt" height="200.000000pt" viewBox="0 0 200.000000 200.000000"
 preserveAspectRatio="xMidYMid meet">
<metadata>
Created by potrace 1.10, written by Peter Selinger 2001-2011
</metadata>
<g transform="translate(0.000000,200.000000) scale(0.100000,-0.100000)"
fill="#000000" stroke="none">
<path d="M320 1145 c0 -58 -3 -75 -14 -75 -9 0 -12 7 -9 20 7 25 -18 35 -55
22 -20 -7 -31 -6 -40 5 -25 27 -32 0 -32 -128 l0 -129 245 0 245 0 0 114 0
113 -45 17 c-24 10 -52 16 -62 14 -21 -4 -38 -58 -17 -58 9 0 14 -12 14 -35 0
-24 -5 -35 -15 -35 -8 0 -15 -5 -15 -10 0 -6 7 -13 15 -16 22 -9 19 -57 -5
-72 -20 -12 -20 -10 -20 158 l0 170 -95 0 -95 0 0 -75z m80 10 c0 -18 -5 -25
-20 -25 -15 0 -20 7 -20 25 0 18 5 25 20 25 15 0 20 -7 20 -25z m70 0 c0 -18
-5 -25 -20 -25 -15 0 -20 7 -20 25 0 18 5 25 20 25 15 0 20 -7 20 -25z m-70
-80 c0 -18 -5 -25 -20 -25 -15 0 -20 7 -20 25 0 18 5 25 20 25 15 0 20 -7 20
-25z m70 0 c0 -18 -5 -25 -20 -25 -15 0 -20 7 -20 25 0 18 5 25 20 25 15 0 20
-7 20 -25z m-220 -50 c0 -28 -4 -35 -20 -35 -16 0 -20 7 -20 35 0 28 4 35 20
35 16 0 20 -7 20 -35z m70 0 c0 -28 -4 -35 -20 -35 -16 0 -20 7 -20 35 0 28 4
35 20 35 16 0 20 -7 20 -35z m300 0 c0 -28 -4 -35 -20 -35 -16 0 -20 7 -20 35
0 28 4 35 20 35 16 0 20 -7 20 -35z m-220 -25 c0 -23 -4 -30 -20 -30 -16 0
-20 7 -20 30 0 23 4 30 20 30 16 0 20 -7 20 -30z m70 0 c0 -23 -4 -30 -20 -30
-16 0 -20 7 -20 30 0 23 4 30 20 30 16 0 20 -7 20 -30z m-150 -71 c0 -33 -3
-40 -16 -35 -9 3 -18 6 -20 6 -10 0 -3 59 9 63 24 10 27 6 27 -34z m-70 1 c0
-23 -4 -30 -20 -30 -16 0 -20 7 -20 30 0 23 4 30 20 30 16 0 20 -7 20 -30z
m370 0 c0 -23 -4 -30 -20 -30 -16 0 -20 7 -20 30 0 23 4 30 20 30 16 0 20 -7
20 -30z m-220 -5 c0 -18 -5 -25 -20 -25 -15 0 -20 7 -20 25 0 18 5 25 20 25
15 0 20 -7 20 -25z m70 0 c0 -18 -5 -25 -20 -25 -15 0 -20 7 -20 25 0 18 5 25
20 25 15 0 20 -7 20 -25z"/>
<path d="M1558 1129 c-12 -6 -18 -22 -18 -44 0 -28 -4 -35 -20 -35 -11 0 -20
-4 -20 -10 0 -5 9 -10 21 -10 19 0 20 -5 17 -85 -3 -76 -1 -85 15 -85 15 0 17
11 17 85 0 78 2 85 20 85 11 0 20 5 20 10 0 6 -9 10 -21 10 -30 0 -23 54 9 58
12 2 22 10 22 18 0 16 -37 18 -62 3z"/>
<path d="M730 995 c0 -128 1 -135 20 -135 18 0 20 7 20 65 l0 65 33 0 c44 0
77 -25 77 -58 0 -45 11 -72 29 -72 16 0 17 5 5 62 -7 33 -18 64 -25 68 -8 6
-5 14 10 29 26 26 27 65 1 91 -16 16 -33 20 -95 20 l-75 0 0 -135z m148 88
c16 -23 15 -30 -9 -54 -15 -15 -30 -19 -62 -17 l-42 3 2 45 c1 25 2 46 2 47 1
1 22 0 49 -3 28 -2 52 -11 60 -21z"/>
<path d="M1437 1111 c3 -13 11 -17 24 -14 28 8 24 33 -5 33 -19 0 -23 -4 -19
-19z"/>
<path d="M1347 1093 c-4 -3 -7 -15 -7 -25 0 -10 -7 -18 -15 -18 -8 0 -15 -4
-15 -10 0 -5 7 -10 15 -10 11 0 15 -18 17 -82 l3 -83 38 -3 c39 -3 53 14 15
20 -21 3 -23 9 -26 76 -3 71 -3 72 23 72 14 0 25 5 25 10 0 6 -11 10 -25 10
-20 0 -25 5 -25 25 0 24 -10 32 -23 18z"/>
<path d="M961 1024 c-29 -36 -29 -116 -1 -144 39 -39 140 -19 140 28 0 19 -24
14 -38 -8 -24 -38 -92 -16 -92 31 0 17 8 19 71 19 l71 0 -7 33 c-11 49 -32 67
-81 67 -34 0 -47 -5 -63 -26z m97 -6 c7 -7 12 -20 12 -30 0 -15 -9 -18 -50
-18 -37 0 -50 4 -50 14 0 37 61 61 88 34z"/>
<path d="M1130 955 c0 -89 1 -95 21 -95 18 0 20 6 18 58 -3 74 7 100 38 108
42 11 56 -14 54 -95 -2 -66 0 -71 18 -71 19 0 21 6 21 75 0 62 -4 79 -20 95
-25 25 -76 26 -103 3 -19 -17 -20 -17 -14 0 5 12 1 17 -13 17 -19 0 -20 -7
-20 -95z"/>
<path d="M1440 955 c0 -78 3 -95 15 -95 12 0 15 17 15 95 0 78 -3 95 -15 95
-12 0 -15 -17 -15 -95z"/>
<path d="M1630 1047 c0 -2 18 -45 39 -96 38 -88 39 -93 25 -126 -14 -33 -13
-35 6 -35 11 0 20 5 20 11 0 6 23 63 50 127 28 63 48 117 46 120 -14 13 -34
-12 -56 -73 -14 -37 -28 -69 -31 -71 -4 -2 -19 30 -35 71 -21 54 -34 75 -46
75 -10 0 -18 -1 -18 -3z"/>
</g>
</svg>
